<svg id="Livello_1" data-name="Livello 1" xmlns="http://www.w3.org/2000/svg" viewBox="0 0 12.38 12.46"><defs><style>.cls-1{fill:#e5231e;}</style></defs><path class="cls-1" d="M12.8,2.6c1.78.94,2.27,3.93,1.08,6.61l-.57-.57-.18.18L10.62,7.48,8.34,6.3l1-.52,0,0a6.91,6.91,0,0,0-1-1.61C9.63,2.55,11.42,1.86,12.8,2.6Z" transform="translate(-2.16 -2.3)"/><polygon class="cls-1" points="11.72 6.91 11.72 6.91 10.98 6.51 11.15 6.34 11.72 6.91"/><polygon class="cls-1" points="10.98 6.51 6.15 11.36 1.34 6.54 3.91 5.18 6.19 4 8.46 5.18 10.98 6.51"/><path class="cls-1" d="M9.32,5.76l0,0-1,.52-1-.52v0a7.27,7.27,0,0,1,1-1.61A6.91,6.91,0,0,1,9.32,5.76Z" transform="translate(-2.16 -2.3)"/><rect class="cls-1" x="7.89" y="13.83" width="0.76" height="0.65" transform="translate(-9.75 7.71) rotate(-45.08)"/><path class="cls-1" d="M8.34,6.3,6.07,7.48,3.5,8.84l-.16-.16-.53.53C1.62,6.53,2.1,3.54,3.89,2.6c1.38-.74,3.17-.05,4.45,1.55a7.27,7.27,0,0,0-1,1.61v0Z" transform="translate(-2.16 -2.3)"/><polygon class="cls-1" points="11.72 6.91 6.18 12.46 5.61 11.89 6.08 12.35 6.61 11.82 6.15 11.36 10.98 6.51 11.72 6.91"/><polygon class="cls-1" points="1.34 6.54 6.15 11.36 5.61 11.89 0.65 6.91 0.65 6.91 0.66 6.91 1.34 6.54"/><polygon class="cls-1" points="1.18 6.38 1.34 6.54 0.66 6.91 0.65 6.91 1.18 6.38"/></svg>