<svg id="Livello_1" data-name="Livello 1" xmlns="http://www.w3.org/2000/svg" viewBox="0 0 11.62 13.08"><defs><style>.cls-1{fill:#1d1d1b;}</style></defs><path class="cls-1" d="M11.19,5a2.88,2.88,0,0,0-.59-.06A3.2,3.2,0,0,0,8,6.28,3.2,3.2,0,0,0,5.4,4.94,2.88,2.88,0,0,0,4.81,5c0-.1,0-.21,0-.32a3.21,3.21,0,1,1,6.42,0C11.21,4.79,11.2,4.9,11.19,5Z" transform="translate(-2.19 -1.46)"/><path class="cls-1" d="M10.6,4.94a2.88,2.88,0,0,1,.59.06,3.22,3.22,0,0,1-2.6,2.85A3.3,3.3,0,0,0,8,6.28,3.2,3.2,0,0,1,10.6,4.94Z" transform="translate(-2.19 -1.46)"/><path class="cls-1" d="M9.47,14.36v.17H9.42A.23.23,0,0,0,9.47,14.36Z" transform="translate(-2.19 -1.46)"/><path class="cls-1" d="M9.47,14.36h0a.23.23,0,0,1-.05.17h0l0,0-.1-.15Z" transform="translate(-2.19 -1.46)"/><path class="cls-1" d="M9.42,14.53h0Z" transform="translate(-2.19 -1.46)"/><path class="cls-1" d="M9.39,14.53H6.66l.11-.16H9.26l.1.15Z" transform="translate(-2.19 -1.46)"/><path class="cls-1" d="M9.26,14.36H6.77a5.14,5.14,0,0,0,.76-1.63,4.87,4.87,0,0,0,.15-1.17c0-.36,0-.72,0-1.08A2.54,2.54,0,0,0,8,10.05a2.74,2.74,0,0,0,.38.45c0,.32,0,.65,0,1a5,5,0,0,0,.16,1.2A5.31,5.31,0,0,0,9.26,14.36Z" transform="translate(-2.19 -1.46)"/><path class="cls-1" d="M8.38,10.5c0-.16,0-.31,0-.46s.17-.12.14.08,0,.34,0,.51Z" transform="translate(-2.19 -1.46)"/><path class="cls-1" d="M8.5,11.4a4,4,0,0,0,.15,1.17,4.84,4.84,0,0,0,.79,1.66.25.25,0,0,1,0,.13H9.26a5.31,5.31,0,0,1-.76-1.69,5,5,0,0,1-.16-1.2c0-.32,0-.65,0-1l.15.13C8.51,10.88,8.5,11.14,8.5,11.4Z" transform="translate(-2.19 -1.46)"/><path class="cls-1" d="M8.43,10c0,.15,0,.3,0,.46A2.74,2.74,0,0,1,8,10.05a3.22,3.22,0,0,0,.61-1.88c0-.11,0-.21,0-.32A3.22,3.22,0,0,0,11.19,5a3.22,3.22,0,0,1-.59,6.39,3.16,3.16,0,0,1-2.07-.76c0-.17,0-.34,0-.51S8.45,9.84,8.43,10Z" transform="translate(-2.19 -1.46)"/><path class="cls-1" d="M8.59,7.85a2.93,2.93,0,0,1-1.18,0A3.3,3.3,0,0,1,8,6.28,3.3,3.3,0,0,1,8.59,7.85Z" transform="translate(-2.19 -1.46)"/><path class="cls-1" d="M8,10.05a3.22,3.22,0,0,1-.61-1.88c0-.11,0-.21,0-.32a2.93,2.93,0,0,0,1.18,0c0,.11,0,.21,0,.32A3.22,3.22,0,0,1,8,10.05Z" transform="translate(-2.19 -1.46)"/><path class="cls-1" d="M7.6,10.15c0-.19-.17-.11-.15.09s0,.25,0,.37a3.16,3.16,0,0,1-2.09.78A3.22,3.22,0,0,1,4.81,5a3.22,3.22,0,0,0,2.6,2.85c0,.11,0,.21,0,.32A3.22,3.22,0,0,0,8,10.05a2.54,2.54,0,0,1-.37.43Z" transform="translate(-2.19 -1.46)"/><path class="cls-1" d="M5.4,4.94A3.2,3.2,0,0,1,8,6.28a3.3,3.3,0,0,0-.59,1.57A3.22,3.22,0,0,1,4.81,5,2.88,2.88,0,0,1,5.4,4.94Z" transform="translate(-2.19 -1.46)"/><path class="cls-1" d="M7.6,10.15l0,.33a.86.86,0,0,1-.14.13c0-.12,0-.25,0-.37S7.57,10,7.6,10.15Z" transform="translate(-2.19 -1.46)"/><path class="cls-1" d="M6.59,14.24a4.84,4.84,0,0,0,.79-1.61,4.19,4.19,0,0,0,.15-1.14c0-.3,0-.59,0-.88a.86.86,0,0,0,.14-.13c0,.36,0,.72,0,1.08a4.87,4.87,0,0,1-.15,1.17,5.14,5.14,0,0,1-.76,1.63H6.55A.16.16,0,0,1,6.59,14.24Z" transform="translate(-2.19 -1.46)"/><path class="cls-1" d="M6.77,14.36l-.11.16H6.6a.25.25,0,0,1,0-.17Z" transform="translate(-2.19 -1.46)"/><path class="cls-1" d="M6.6,14.53h.05A0,0,0,0,1,6.6,14.53Z" transform="translate(-2.19 -1.46)"/><path class="cls-1" d="M6.6,14.53H6.53v-.17h0A.25.25,0,0,0,6.6,14.53Z" transform="translate(-2.19 -1.46)"/></svg>