<svg id="Livello_1" data-name="Livello 1" xmlns="http://www.w3.org/2000/svg" viewBox="0 0 11.85 12.35" width="50%" height="50%"><defs><style>.cls-1{fill:#1d1d1b;}</style></defs><path class="cls-1" d="M13.66,7.59a3.1,3.1,0,0,1,.25,1.56,1.56,1.56,0,0,1-.64,1.2,3,3,0,0,1-1.47.5A4.77,4.77,0,0,1,8.65,9.9v0c0-.2-.14-.29-.17-.09h0c-.1-.08,0-.22.15-.14a4.72,4.72,0,0,0,2.84,1A3,3,0,0,0,13,10.3a1.36,1.36,0,0,0,.52-.49,1.83,1.83,0,0,0,.2-.69,3,3,0,0,0-.27-1.51,4.71,4.71,0,0,0-.85-1.19,17.47,17.47,0,0,0-2.37-2.08A6.06,6.06,0,0,1,8.11,2.21,1.19,1.19,0,0,0,8.19,2c0-.11-.12-.18-.18-.1,0-.09.17-.12.2,0a5.18,5.18,0,0,0,2.15,2.3,16.9,16.9,0,0,1,2.45,2.17A4.92,4.92,0,0,1,13.66,7.59Z" transform="translate(-2.07 -1.83)"/><path class="cls-1" d="M13.44,7.61a3,3,0,0,1,.27,1.51,1.83,1.83,0,0,1-.2.69,1.36,1.36,0,0,1-.52.49,3,3,0,0,1-1.51.37,4.72,4.72,0,0,1-2.84-1c-.11-.08-.25.06-.15.14a9.27,9.27,0,0,0-.09,1.39,4.05,4.05,0,0,0,.17,1.18A4.84,4.84,0,0,0,9.42,14H6.61a4.56,4.56,0,0,0,.84-1.6,4,4,0,0,0,.18-1.17,9.36,9.36,0,0,0-.1-1.41c0-.08,0-.12-.08-.11a.14.14,0,0,0-.11,0,4.73,4.73,0,0,1-2.87.95A3.13,3.13,0,0,1,3,10.2a1.33,1.33,0,0,1-.5-.5A1.58,1.58,0,0,1,2.29,9,3,3,0,0,1,2.6,7.5a4.94,4.94,0,0,1,.88-1.16,18.22,18.22,0,0,1,2.43-2,5.8,5.8,0,0,0,2.2-2.11,6.06,6.06,0,0,0,2.11,2.13,17.47,17.47,0,0,1,2.37,2.08A4.71,4.71,0,0,1,13.44,7.61Z" transform="translate(-2.07 -1.83)"/><path class="cls-1" d="M9.7,14v.18H6.41a.05.05,0,0,0,0,0l.16-.2H9.42l.15.19C9.64,14.22,9.7,14.11,9.7,14Z" transform="translate(-2.07 -1.83)"/><path class="cls-1" d="M9.7,14v0Z" transform="translate(-2.07 -1.83)"/><path class="cls-1" d="M9.7,14V14c0,.11-.06.22-.13.14L9.42,14Z" transform="translate(-2.07 -1.83)"/><path class="cls-1" d="M9.7,14H9.42a4.84,4.84,0,0,1-.85-1.6,4.05,4.05,0,0,1-.17-1.18,9.27,9.27,0,0,1,.09-1.39h0a.91.91,0,0,1,.16.11,9.71,9.71,0,0,0-.08,1.21,3.83,3.83,0,0,0,.17,1.14,4.65,4.65,0,0,0,.92,1.62A.2.2,0,0,1,9.7,14Z" transform="translate(-2.07 -1.83)"/><path class="cls-1" d="M8.49,9.77c0-.2.2-.11.17.09v0a.91.91,0,0,0-.16-.11h0Z" transform="translate(-2.07 -1.83)"/><path class="cls-1" d="M8,1.91c.06-.08.22,0,.18.1a1.19,1.19,0,0,1-.08.2A2,2,0,0,1,8,2s0,0,0,0Z" transform="translate(-2.07 -1.83)"/><path class="cls-1" d="M8,2a2,2,0,0,0,.1.26,5.8,5.8,0,0,1-2.2,2.11,18.22,18.22,0,0,0-2.43,2A4.94,4.94,0,0,0,2.6,7.5,3,3,0,0,0,2.29,9a1.58,1.58,0,0,0,.18.7,1.33,1.33,0,0,0,.5.5,3.13,3.13,0,0,0,1.5.42,4.73,4.73,0,0,0,2.87-.95.14.14,0,0,1,.11,0s-.1.08-.08.2v0a4.79,4.79,0,0,1-3.22.9,3,3,0,0,1-1.47-.54A1.61,1.61,0,0,1,2.08,9a3.1,3.1,0,0,1,.3-1.55,4.92,4.92,0,0,1,.89-1.2,17.38,17.38,0,0,1,2.5-2.1C6.64,3.56,7.65,3,8,1.94l0,0S8,1.94,8,2Z" transform="translate(-2.07 -1.83)"/><path class="cls-1" d="M7.53,9.77a9.36,9.36,0,0,1,.1,1.41,4,4,0,0,1-.18,1.17A4.56,4.56,0,0,1,6.61,14H6.33a.2.2,0,0,1,0-.08,4.55,4.55,0,0,0,.91-1.62,3.25,3.25,0,0,0,.17-1.14,9.87,9.87,0,0,0-.08-1.22l.11-.07c.07-.05,0-.13,0-.16S7.52,9.69,7.53,9.77Z" transform="translate(-2.07 -1.83)"/><path class="cls-1" d="M7.45,9.66c.06,0,.1.11,0,.16l-.11.07v0C7.35,9.74,7.4,9.67,7.45,9.66Z" transform="translate(-2.07 -1.83)"/><path class="cls-1" d="M6.33,14h.28l-.16.2a.05.05,0,0,1,0,0s-.08-.09-.08-.17Z" transform="translate(-2.07 -1.83)"/><path class="cls-1" d="M6.41,14.18H6.33V14C6.33,14.09,6.36,14.18,6.41,14.18Z" transform="translate(-2.07 -1.83)"/><path class="cls-1" d="M6.33,14h0v0Z" transform="translate(-2.07 -1.83)"/></svg>