<svg id="Livello_2" data-name="Livello 2" xmlns="http://www.w3.org/2000/svg" viewBox="0 0 54.39 69.51"><path d="M142.12,37.74c-.13,3.15-.3,6.29-.37,9.43a3.34,3.34,0,0,1-1,2.32q-13.51,15-27,30a2.67,2.67,0,0,0-.26.37c1.75,1.92,3.51,3.86,5.28,5.79,3,3.33,6.06,6.64,9.08,10a2.11,2.11,0,0,1,.62,1.08c0,3.46,0,6.92,0,10.48L103.88,80c3.82-4.25,7.6-8.44,11.38-12.63l26.36-29.25a3.39,3.39,0,0,0,.27-.39Z" transform="translate(-103.88 -37.63)"/><path d="M133.53,106.7c0-3.18.08-6.37,0-9.56a3.21,3.21,0,0,1,1-2.42c4.48-4.85,8.93-9.75,13.38-14.63.21-.23.42-.48.69-.8L132.86,61.82l4.69-5.23,20.72,23c-2,2.16-3.91,4.27-5.83,6.39L134.1,106.22a5.11,5.11,0,0,0-.33.48Z" transform="translate(-103.88 -37.63)"/><path d="M126.1,54.36c-1.82-2-3.56-4-5.26-5.89a1.52,1.52,0,0,1-.41-.92c0-3.3,0-6.59,0-9.92l10.41,11.5Z" transform="translate(-103.88 -37.63)"/><path d="M131.14,83.17h-.24l-4.65-4.89,5.13-5.14a11.65,11.65,0,0,0,.89,1.06c1.25,1.2,2.53,2.38,3.79,3.58v.47Z" transform="translate(-103.88 -37.63)"/></svg>